<svg width="200" height="200" viewBox="0 0 200 200" xmlns="http://www.w3.org/2000/svg">
  <!-- Black circular background with white outline -->
  <circle cx="100" cy="100" r="95" fill="#2c3e50" stroke="white" stroke-width="3"/>
  
  <!-- Human head profile (facing right) -->
  <path d="M 40 60 Q 40 40 60 40 Q 80 35 100 50 Q 120 35 140 40 Q 160 40 160 60 Q 160 80 150 100 Q 160 120 160 140 Q 160 160 140 160 Q 120 165 100 150 Q 80 165 60 160 Q 40 160 40 140 Q 40 120 50 100 Q 40 80 40 60 Z" 
        fill="white" stroke="white" stroke-width="1"/>
  
  <!-- Neural network/circuit board design inside the head -->
  <!-- Central vertical line -->
  <line x1="100" y1="50" x2="100" y2="150" stroke="white" stroke-width="3"/>
  
  <!-- Branching lines from central line -->
  <line x1="100" y1="70" x2="80" y2="80" stroke="white" stroke-width="2"/>
  <line x1="100" y1="70" x2="120" y2="80" stroke="white" stroke-width="2"/>
  
  <line x1="100" y1="90" x2="75" y2="100" stroke="white" stroke-width="2"/>
  <line x1="100" y1="90" x2="125" y2="100" stroke="white" stroke-width="2"/>
  
  <line x1="100" y1="110" x2="85" y2="120" stroke="white" stroke-width="2"/>
  <line x1="100" y1="110" x2="115" y2="120" stroke="white" stroke-width="2"/>
  
  <line x1="100" y1="130" x2="90" y2="140" stroke="white" stroke-width="2"/>
  <line x1="100" y1="130" x2="110" y2="140" stroke="white" stroke-width="2"/>
  
  <!-- Connection nodes (circles with black centers) -->
  <circle cx="80" cy="80" r="4" fill="white" stroke="#2c3e50" stroke-width="1"/>
  <circle cx="120" cy="80" r="4" fill="white" stroke="#2c3e50" stroke-width="1"/>
  <circle cx="75" cy="100" r="4" fill="white" stroke="#2c3e50" stroke-width="1"/>
  <circle cx="125" cy="100" r="4" fill="white" stroke="#2c3e50" stroke-width="1"/>
  <circle cx="85" cy="120" r="4" fill="white" stroke="#2c3e50" stroke-width="1"/>
  <circle cx="115" cy="120" r="4" fill="white" stroke="#2c3e50" stroke-width="1"/>
  <circle cx="90" cy="140" r="4" fill="white" stroke="#2c3e50" stroke-width="1"/>
  <circle cx="110" cy="140" r="4" fill="white" stroke="#2c3e50" stroke-width="1"/>
  
  <!-- Central nodes on main line -->
  <circle cx="100" cy="70" r="3" fill="#2c3e50"/>
  <circle cx="100" cy="90" r="3" fill="#2c3e50"/>
  <circle cx="100" cy="110" r="3" fill="#2c3e50"/>
  <circle cx="100" cy="130" r="3" fill="#2c3e50"/>
</svg>